<svg height="963.228515625" version="1.1" width="1140.265625" xmlns="http://www.w3.org/2000/svg" xmlns:xlink="http://www.w3.org/1999/xlink" viewBox="0 0 1140.265625 963.228515625" preserveAspectRatio="xMidYMid meet" style="overflow: hidden; position: relative; top: -0.765625px; color: rgb(51, 51, 51);"><desc>Created with Raphaël 2.2.0</desc><defs><path stroke-linecap="round" d="M5,0 0,2.5 5,5z" id="raphael-marker-block"></path><marker id="raphael-marker-endblock33-obj5z0dy" markerHeight="3" markerWidth="3" orient="auto" refX="1.5" refY="1.5"><use href="#raphael-marker-block" transform="rotate(180 1.5 1.5) scale(0.6,0.6)" stroke-width="1.6667" fill="currentColor" stroke="none"></use></marker><marker id="raphael-marker-endblock33-objkn2q5" markerHeight="3" markerWidth="3" orient="auto" refX="1.5" refY="1.5"><use href="#raphael-marker-block" transform="rotate(180 1.5 1.5) scale(0.6,0.6)" stroke-width="1.6667" fill="currentColor" stroke="none"></use></marker><marker id="raphael-marker-endblock33-objhpdva" markerHeight="3" markerWidth="3" orient="auto" refX="1.5" refY="1.5"><use href="#raphael-marker-block" transform="rotate(180 1.5 1.5) scale(0.6,0.6)" stroke-width="1.6667" fill="currentColor" stroke="none"></use></marker><marker id="raphael-marker-endblock33-objp6ywr" markerHeight="3" markerWidth="3" orient="auto" refX="1.5" refY="1.5"><use href="#raphael-marker-block" transform="rotate(180 1.5 1.5) scale(0.6,0.6)" stroke-width="1.6667" fill="currentColor" stroke="none"></use></marker><marker id="raphael-marker-endblock33-objalous" markerHeight="3" markerWidth="3" orient="auto" refX="1.5" refY="1.5"><use href="#raphael-marker-block" transform="rotate(180 1.5 1.5) scale(0.6,0.6)" stroke-width="1.6667" fill="currentColor" stroke="none"></use></marker><marker id="raphael-marker-endblock33-objzs9kh" markerHeight="3" markerWidth="3" orient="auto" refX="1.5" refY="1.5"><use href="#raphael-marker-block" transform="rotate(180 1.5 1.5) scale(0.6,0.6)" stroke-width="1.6667" fill="currentColor" stroke="none"></use></marker><marker id="raphael-marker-endblock33-objzrb7r" markerHeight="3" markerWidth="3" orient="auto" refX="1.5" refY="1.5"><use href="#raphael-marker-block" transform="rotate(180 1.5 1.5) scale(0.6,0.6)" stroke-width="1.6667" fill="currentColor" stroke="none"></use></marker><marker id="raphael-marker-endblock33-obj6v3cg" markerHeight="3" markerWidth="3" orient="auto" refX="1.5" refY="1.5"><use href="#raphael-marker-block" transform="rotate(180 1.5 1.5) scale(0.6,0.6)" stroke-width="1.6667" fill="currentColor" stroke="none"></use></marker><marker id="raphael-marker-endblock33-objec06w" markerHeight="3" markerWidth="3" orient="auto" refX="1.5" refY="1.5"><use href="#raphael-marker-block" transform="rotate(180 1.5 1.5) scale(0.6,0.6)" stroke-width="1.6667" fill="currentColor" stroke="none"></use></marker><marker id="raphael-marker-endblock33-objtcwyo" markerHeight="3" markerWidth="3" orient="auto" refX="1.5" refY="1.5"><use href="#raphael-marker-block" transform="rotate(180 1.5 1.5) scale(0.6,0.6)" stroke-width="1.6667" fill="currentColor" stroke="none"></use></marker><marker id="raphael-marker-endblock33-obj5nx45" markerHeight="3" markerWidth="3" orient="auto" refX="1.5" refY="1.5"><use href="#raphael-marker-block" transform="rotate(180 1.5 1.5) scale(0.6,0.6)" stroke-width="1.6667" fill="currentColor" stroke="none"></use></marker><marker id="raphael-marker-endblock33-objo42hy" markerHeight="3" markerWidth="3" orient="auto" refX="1.5" refY="1.5"><use href="#raphael-marker-block" transform="rotate(180 1.5 1.5) scale(0.6,0.6)" stroke-width="1.6667" fill="currentColor" stroke="none"></use></marker><marker id="raphael-marker-endblock33-objbuaaa" markerHeight="3" markerWidth="3" orient="auto" refX="1.5" refY="1.5"><use href="#raphael-marker-block" transform="rotate(180 1.5 1.5) scale(0.6,0.6)" stroke-width="1.6667" fill="currentColor" stroke="none"></use></marker><marker id="raphael-marker-endblock33-objse7n8" markerHeight="3" markerWidth="3" orient="auto" refX="1.5" refY="1.5"><use href="#raphael-marker-block" transform="rotate(180 1.5 1.5) scale(0.6,0.6)" stroke-width="1.6667" fill="currentColor" stroke="none"></use></marker><marker id="raphael-marker-endblock33-objzzys8" markerHeight="3" markerWidth="3" orient="auto" refX="1.5" refY="1.5"><use href="#raphael-marker-block" transform="rotate(180 1.5 1.5) scale(0.6,0.6)" stroke-width="1.6667" fill="currentColor" stroke="none"></use></marker><marker id="raphael-marker-endblock33-objclk9g" markerHeight="3" markerWidth="3" orient="auto" refX="1.5" refY="1.5"><use href="#raphael-marker-block" transform="rotate(180 1.5 1.5) scale(0.6,0.6)" stroke-width="1.6667" fill="currentColor" stroke="none"></use></marker><marker id="raphael-marker-endblock33-objv8wup" markerHeight="3" markerWidth="3" orient="auto" refX="1.5" refY="1.5"><use href="#raphael-marker-block" transform="rotate(180 1.5 1.5) scale(0.6,0.6)" stroke-width="1.6667" fill="currentColor" stroke="none"></use></marker><marker id="raphael-marker-endblock33-objkfsye" markerHeight="3" markerWidth="3" orient="auto" refX="1.5" refY="1.5"><use href="#raphael-marker-block" transform="rotate(180 1.5 1.5) scale(0.6,0.6)" stroke-width="1.6667" fill="currentColor" stroke="none"></use></marker></defs><rect x="0" y="0" width="49.578125" height="35.65625" rx="20" ry="20" fill="none" stroke="currentColor" stroke-width="3" class="flowchart" id="st" transform="matrix(1,0,0,1,92.7734,36.7754)" style=""></rect><text x="10" y="17.828125" text-anchor="start" font-family="&quot;Arial&quot;" font-size="14px" stroke="none" fill="currentColor" id="stt" class="flowchartt" transform="matrix(1,0,0,1,92.7734,36.7754)" stroke-width="1" style="text-anchor: start; font-family: Arial; font-size: 14px;"><tspan dy="4.859375">Start</tspan></text><path fill="none" stroke="currentColor" d="M42.486328125,21.2431640625L0,42.486328125L84.97265625,84.97265625L169.9453125,42.486328125L84.97265625,0L0,42.486328125" stroke-width="3" id="agentMod" class="flowchart" transform="matrix(1,0,0,1,32.5898,134.5488)" style=""></path><text x="47.486328125" y="42.486328125" text-anchor="start" font-family="&quot;Arial&quot;" font-size="14px" stroke="none" fill="currentColor" id="agentModt" class="flowchartt" transform="matrix(1,0,0,1,32.5898,134.5488)" stroke-width="1" style="text-anchor: start; font-family: Arial; font-size: 14px;"><tspan dy="4.853515625">Agent mode?</tspan></text><rect x="0" y="0" width="207.3125" height="35.65625" rx="0" ry="0" fill="none" stroke="currentColor" stroke-width="3" class="flowchart" id="LLM" transform="matrix(1,0,0,1,266.4414,159.207)" style=""></rect><rect x="10" y="0" width="187.3125" height="35.65625" rx="0" ry="0" fill="none" stroke="currentColor" stroke-width="3" id="LLMi" transform="matrix(1,0,0,1,266.4414,159.207)" style=""></rect><text x="20" y="17.828125" text-anchor="start" font-family="&quot;Arial&quot;" font-size="14px" stroke="none" fill="currentColor" id="LLMt" class="flowchartt" transform="matrix(1,0,0,1,266.4414,159.207)" stroke-width="1" style="text-anchor: start; font-family: Arial; font-size: 14px;"><tspan dy="4.859375">LLM intention classification</tspan></text><path fill="none" stroke="currentColor" d="M10,17.828125L0,35.65625L77.34375,35.65625L97.34375,0L20,0L10,17.828125" stroke-width="3" id="json" class="flowchart" transform="matrix(1,0,0,1,321.4258,281.6387)" style=""></path><text x="30" y="17.828125" text-anchor="start" font-family="&quot;Arial&quot;" font-size="14px" stroke="none" fill="currentColor" id="jsont" class="flowchartt" transform="matrix(1,0,0,1,321.4258,281.6387)" stroke-width="1" style="text-anchor: start; font-family: Arial; font-size: 14px;"><tspan dy="4.859375">JSON</tspan></text><path fill="none" stroke="currentColor" d="M48.603515625,24.3017578125L0,48.603515625L97.20703125,97.20703125L194.4140625,48.603515625L97.20703125,0L0,48.603515625" stroke-width="3" id="isCode" class="flowchart" transform="matrix(1,0,0,1,272.8906,373.2949)" style=""></path><text x="53.603515625" y="48.603515625" text-anchor="start" font-family="&quot;Arial&quot;" font-size="14px" stroke="none" fill="currentColor" id="isCodet" class="flowchartt" transform="matrix(1,0,0,1,272.8906,373.2949)" stroke-width="1" style="text-anchor: start; font-family: Arial; font-size: 14px;"><tspan dy="4.853515625">Process codes?</tspan></text><rect x="0" y="0" width="223.125" height="35.65625" rx="0" ry="0" fill="none" stroke="currentColor" stroke-width="3" class="flowchart" id="opExtract" transform="matrix(1,0,0,1,258.5352,557.2773)" style=""></rect><text x="10" y="17.828125" text-anchor="start" font-family="&quot;Arial&quot;" font-size="14px" stroke="none" fill="currentColor" id="opExtractt" class="flowchartt" transform="matrix(1,0,0,1,258.5352,557.2773)" stroke-width="1" style="text-anchor: start; font-family: Arial; font-size: 14px;"><tspan dy="4.859375">Operation extraction &amp; execution</tspan></text><rect x="0" y="0" width="188.859375" height="35.65625" rx="0" ry="0" fill="none" stroke="currentColor" stroke-width="3" class="flowchart" id="upload" transform="matrix(1,0,0,1,275.668,679.709)" style=""></rect><text x="10" y="17.828125" text-anchor="start" font-family="&quot;Arial&quot;" font-size="14px" stroke="none" fill="currentColor" id="uploadt" class="flowchartt" transform="matrix(1,0,0,1,275.668,679.709)" stroke-width="1" style="text-anchor: start; font-family: Arial; font-size: 14px;"><tspan dy="4.859375">Upload artifacts &amp; Get URL</tspan></text><path fill="none" stroke="currentColor" d="M10,17.828125L0,35.65625L198.734375,35.65625L218.734375,0L20,0L10,17.828125" stroke-width="3" id="reply" class="flowchart" transform="matrix(1,0,0,1,260.7305,802.1406)" style=""></path><text x="30" y="17.828125" text-anchor="start" font-family="&quot;Arial&quot;" font-size="14px" stroke="none" fill="currentColor" id="replyt" class="flowchartt" transform="matrix(1,0,0,1,260.7305,802.1406)" stroke-width="1" style="text-anchor: start; font-family: Arial; font-size: 14px;"><tspan dy="4.859375">Formatted reply message</tspan></text><rect x="0" y="0" width="44.921875" height="35.65625" rx="20" ry="20" fill="none" stroke="currentColor" stroke-width="3" class="flowchart" id="e" transform="matrix(1,0,0,1,347.6367,924.5723)" style=""></rect><text x="10" y="17.828125" text-anchor="start" font-family="&quot;Arial&quot;" font-size="14px" stroke="none" fill="currentColor" id="et" class="flowchartt" transform="matrix(1,0,0,1,347.6367,924.5723)" stroke-width="1" style="text-anchor: start; font-family: Arial; font-size: 14px;"><tspan dy="4.859375">End</tspan></text><path fill="none" stroke="currentColor" d="M39.556640625,19.7783203125L0,39.556640625L79.11328125,79.11328125L158.2265625,39.556640625L79.11328125,0L0,39.556640625" stroke-width="3" id="isTaskQuery" class="flowchart" transform="matrix(1,0,0,1,555.7539,382.3418)" style=""></path><text x="44.556640625" y="39.556640625" text-anchor="start" font-family="&quot;Arial&quot;" font-size="14px" stroke="none" fill="currentColor" id="isTaskQueryt" class="flowchartt" transform="matrix(1,0,0,1,555.7539,382.3418)" stroke-width="1" style="text-anchor: start; font-family: Arial; font-size: 14px;"><tspan dy="4.853515625">Query jobs?</tspan></text><rect x="0" y="0" width="165.296875" height="35.65625" rx="0" ry="0" fill="none" stroke="currentColor" stroke-width="3" class="flowchart" id="getTask" transform="matrix(1,0,0,1,552.2188,548.2305)" style=""></rect><rect x="10" y="0" width="145.296875" height="35.65625" rx="0" ry="0" fill="none" stroke="currentColor" stroke-width="3" id="getTaski" transform="matrix(1,0,0,1,552.2188,548.2305)" style=""></rect><text x="20" y="17.828125" text-anchor="start" font-family="&quot;Arial&quot;" font-size="14px" stroke="none" fill="currentColor" id="getTaskt" class="flowchartt" transform="matrix(1,0,0,1,552.2188,548.2305)" stroke-width="1" style="text-anchor: start; font-family: Arial; font-size: 14px;"><tspan dy="4.859375">Get jobs information</tspan></text><path fill="none" stroke="currentColor" d="M41.6015625,20.80078125L0,41.6015625L83.203125,83.203125L166.40625,41.6015625L83.203125,0L0,41.6015625" stroke-width="3" id="isTaskRemove" class="flowchart" transform="matrix(1,0,0,1,798.3398,380.2969)" style=""></path><text x="46.6015625" y="41.6015625" text-anchor="start" font-family="&quot;Arial&quot;" font-size="14px" stroke="none" fill="currentColor" id="isTaskRemovet" class="flowchartt" transform="matrix(1,0,0,1,798.3398,380.2969)" stroke-width="1" style="text-anchor: start; font-family: Arial; font-size: 14px;"><tspan dy="4.8515625">Cancel jobs?</tspan></text><rect x="0" y="0" width="172.296875" height="35.65625" rx="0" ry="0" fill="none" stroke="currentColor" stroke-width="3" class="flowchart" id="rmTask" transform="matrix(1,0,0,1,795.3945,550.2754)" style=""></rect><rect x="10" y="0" width="152.296875" height="35.65625" rx="0" ry="0" fill="none" stroke="currentColor" stroke-width="3" id="rmTaski" transform="matrix(1,0,0,1,795.3945,550.2754)" style=""></rect><text x="20" y="17.828125" text-anchor="start" font-family="&quot;Arial&quot;" font-size="14px" stroke="none" fill="currentColor" id="rmTaskt" class="flowchartt" transform="matrix(1,0,0,1,795.3945,550.2754)" stroke-width="1" style="text-anchor: start; font-family: Arial; font-size: 14px;"><tspan dy="4.859375">Remove running jobs</tspan></text><rect x="0" y="0" width="161.390625" height="35.65625" rx="0" ry="0" fill="none" stroke="currentColor" stroke-width="3" class="flowchart" id="callFunc" transform="matrix(1,0,0,1,36.8672,306.2969)" style=""></rect><rect x="10" y="0" width="141.390625" height="35.65625" rx="0" ry="0" fill="none" stroke="currentColor" stroke-width="3" id="callFunci" transform="matrix(1,0,0,1,36.8672,306.2969)" style=""></rect><text x="20" y="17.828125" text-anchor="start" font-family="&quot;Arial&quot;" font-size="14px" stroke="none" fill="currentColor" id="callFunct" class="flowchartt" transform="matrix(1,0,0,1,36.8672,306.2969)" stroke-width="1" style="text-anchor: start; font-family: Arial; font-size: 14px;"><tspan dy="4.859375">Direct function calls</tspan></text><path fill="none" stroke="currentColor" d="M10,17.828125L0,35.65625L114.6875,35.65625L134.6875,0L20,0L10,17.828125" stroke-width="3" id="reply2" class="flowchart" transform="matrix(1,0,0,1,50.2188,428.7285)" style=""></path><text x="30" y="17.828125" text-anchor="start" font-family="&quot;Arial&quot;" font-size="14px" stroke="none" fill="currentColor" id="reply2t" class="flowchartt" transform="matrix(1,0,0,1,50.2188,428.7285)" stroke-width="1" style="text-anchor: start; font-family: Arial; font-size: 14px;"><tspan dy="4.859375">Result (dict)</tspan></text><rect x="0" y="0" width="44.921875" height="35.65625" rx="20" ry="20" fill="none" stroke="currentColor" stroke-width="3" class="flowchart" id="e2" transform="matrix(1,0,0,1,95.1016,551.1602)" style=""></rect><text x="10" y="17.828125" text-anchor="start" font-family="&quot;Arial&quot;" font-size="14px" stroke="none" fill="currentColor" id="e2t" class="flowchartt" transform="matrix(1,0,0,1,95.1016,551.1602)" stroke-width="1" style="text-anchor: start; font-family: Arial; font-size: 14px;"><tspan dy="4.859375">End</tspan></text><path fill="none" stroke="currentColor" d="M117.5625,72.431640625C117.5625,72.431640625,117.5625,115.78790923766792,117.5625,130.05652498226664" stroke-width="3" marker-end="url(#raphael-marker-endblock33-obj5z0dy)" style=""></path><path fill="none" stroke="currentColor" d="M202.53515625,177.03515625C202.53515625,177.03515625,247.40122282505035,177.03515625,261.94764284742996,177.03515625" stroke-width="3" marker-end="url(#raphael-marker-endblock33-objkn2q5)" style=""></path><text x="207.53515625" y="167.03515625" text-anchor="start" font-family="&quot;Arial&quot;" font-size="14px" stroke="none" fill="currentColor" stroke-width="1" style="text-anchor: start; font-family: Arial; font-size: 14px;"><tspan dy="4.84765625">yes</tspan></text><path fill="none" stroke="currentColor" d="M117.5625,219.521484375C117.5625,219.521484375,117.5625,284.0084759040037,117.5625,301.7990765943783" stroke-width="3" marker-end="url(#raphael-marker-endblock33-objhpdva)" style=""></path><text x="122.5625" y="229.521484375" text-anchor="start" font-family="&quot;Arial&quot;" font-size="14px" stroke="none" fill="currentColor" stroke-width="1" style="text-anchor: start; font-family: Arial; font-size: 14px;"><tspan dy="4.849609375">no</tspan></text><path fill="none" stroke="currentColor" d="M370.09765625,194.86328125C370.09765625,194.86328125,370.09765625,259.3502727790037,370.09765625,277.1408734693783" stroke-width="3" marker-end="url(#raphael-marker-endblock33-objp6ywr)" style=""></path><path fill="none" stroke="currentColor" d="M370.09765625,317.294921875C370.09765625,317.294921875,370.09765625,355.49569272994995,370.09765625,368.79508219263516" stroke-width="3" marker-end="url(#raphael-marker-endblock33-objalous)" style=""></path><path fill="none" stroke="currentColor" d="M370.09765625,470.501953125C370.09765625,470.501953125,370.09765625,534.9889446540037,370.09765625,552.7795453443782" stroke-width="3" marker-end="url(#raphael-marker-endblock33-objzs9kh)" style=""></path><text x="375.09765625" y="480.501953125" text-anchor="start" font-family="&quot;Arial&quot;" font-size="14px" stroke="none" fill="currentColor" stroke-width="1" style="text-anchor: start; font-family: Arial; font-size: 14px;"><tspan dy="4.853515625">yes</tspan></text><path fill="none" stroke="currentColor" d="M467.3046875,421.8984375C467.3046875,421.8984375,533.2218672633171,421.8984375,551.2460961048491,421.8984375" stroke-width="3" marker-end="url(#raphael-marker-endblock33-objzrb7r)" style=""></path><text x="472.3046875" y="411.8984375" text-anchor="start" font-family="&quot;Arial&quot;" font-size="14px" stroke="none" fill="currentColor" stroke-width="1" style="text-anchor: start; font-family: Arial; font-size: 14px;"><tspan dy="4.8515625">no</tspan></text><path fill="none" stroke="currentColor" d="M370.09765625,592.93359375C370.09765625,592.93359375,370.09765625,657.4205852790037,370.09765625,675.2111859693782" stroke-width="3" marker-end="url(#raphael-marker-endblock33-obj6v3cg)" style=""></path><path fill="none" stroke="currentColor" d="M370.09765625,715.365234375C370.09765625,715.365234375,370.09765625,779.8522259040037,370.09765625,797.6428265943782" stroke-width="3" marker-end="url(#raphael-marker-endblock33-objec06w)" style=""></path><path fill="none" stroke="currentColor" d="M370.09765625,837.796875C370.09765625,837.796875,370.09765625,902.2838665290037,370.09765625,920.0744672193783" stroke-width="3" marker-end="url(#raphael-marker-endblock33-objtcwyo)" style=""></path><path fill="none" stroke="currentColor" d="M634.8671875,461.455078125C634.8671875,461.455078125,634.8671875,525.9420696540037,634.8671875,543.7326703443782" stroke-width="3" marker-end="url(#raphael-marker-endblock33-obj5nx45)" style=""></path><text x="639.8671875" y="471.455078125" text-anchor="start" font-family="&quot;Arial&quot;" font-size="14px" stroke="none" fill="currentColor" stroke-width="1" style="text-anchor: start; font-family: Arial; font-size: 14px;"><tspan dy="4.853515625">yes</tspan></text><path fill="none" stroke="currentColor" d="M713.98046875,421.8984375C713.98046875,421.8984375,776.3528264425695,421.8984375,793.8341415380455,421.8984375" stroke-width="3" marker-end="url(#raphael-marker-endblock33-objo42hy)" style=""></path><text x="718.98046875" y="411.8984375" text-anchor="start" font-family="&quot;Arial&quot;" font-size="14px" stroke="none" fill="currentColor" stroke-width="1" style="text-anchor: start; font-family: Arial; font-size: 14px;"><tspan dy="4.8515625">no</tspan></text><path fill="none" stroke="currentColor" d="M634.8671875,583.88671875C634.8671875,583.88671875,634.8671875,644.708984375,634.8671875,644.708984375C634.8671875,644.708984375,370.09765625,644.708984375,370.09765625,644.708984375C370.09765625,644.708984375,370.09765625,665.7520561218262,370.09765625,675.2049985080957" stroke-width="3" marker-end="url(#raphael-marker-endblock33-objbuaaa)" style=""></path><path fill="none" stroke="currentColor" d="M881.54296875,463.5C881.54296875,463.5,881.54296875,527.9869915290037,881.54296875,545.7775922193783" stroke-width="3" marker-end="url(#raphael-marker-endblock33-objse7n8)" style=""></path><text x="886.54296875" y="473.5" text-anchor="start" font-family="&quot;Arial&quot;" font-size="14px" stroke="none" fill="currentColor" stroke-width="1" style="text-anchor: start; font-family: Arial; font-size: 14px;"><tspan dy="4.859375">yes</tspan></text><path fill="none" stroke="currentColor" d="M964.74609375,421.8984375C964.74609375,421.8984375,989.74609375,421.8984375,989.74609375,421.8984375C989.74609375,421.8984375,989.74609375,889.572265625,989.74609375,889.572265625C989.74609375,889.572265625,370.09765625,889.572265625,370.09765625,889.572265625C370.09765625,889.572265625,370.09765625,910.6153373718262,370.09765625,920.0682797580957" stroke-width="3" marker-end="url(#raphael-marker-endblock33-objzzys8)" style=""></path><text x="969.74609375" y="411.8984375" text-anchor="start" font-family="&quot;Arial&quot;" font-size="14px" stroke="none" fill="currentColor" stroke-width="1" style="text-anchor: start; font-family: Arial; font-size: 14px;"><tspan dy="4.8515625">no</tspan></text><path fill="none" stroke="currentColor" d="M881.54296875,585.931640625C881.54296875,585.931640625,881.54296875,767.140625,881.54296875,767.140625C881.54296875,767.140625,370.09765625,767.140625,370.09765625,767.140625C370.09765625,767.140625,370.09765625,788.1836967468262,370.09765625,797.6366391330957" stroke-width="3" marker-end="url(#raphael-marker-endblock33-objclk9g)" style=""></path><path fill="none" stroke="currentColor" d="M117.5625,341.953125C117.5625,341.953125,117.5625,406.4401165290037,117.5625,424.23071721937833" stroke-width="3" marker-end="url(#raphael-marker-endblock33-objv8wup)" style=""></path><path fill="none" stroke="currentColor" d="M117.5625,464.384765625C117.5625,464.384765625,117.5625,528.8717571540037,117.5625,546.6623578443782" stroke-width="3" marker-end="url(#raphael-marker-endblock33-objkfsye)" style=""></path></svg>